# Tiled2Unity generated file. Do not modify by hand.
# Wavefront file for 'test_area_mesh_0002.obj'

# Vertices (Count = 456)
v -67 -29 0
v -68 -29 0
v -68 -28 0
v -67 -28 0
v -69 -30 0
v -70 -30 0
v -70 -29 0
v -69 -29 0
v -64 -30 0
v -65 -30 0
v -65 -29 0
v -64 -29 0
v -63 -30 0
v -64 -30 0
v -64 -29 0
v -63 -29 0
v -62 -30 0
v -63 -30 0
v -63 -29 0
v -62 -29 0
v -61 -30 0
v -62 -30 0
v -62 -29 0
v -61 -29 0
v -60 -30 0
v -61 -30 0
v -61 -29 0
v -60 -29 0
v -59 -30 0
v -60 -30 0
v -60 -29 0
v -59 -29 0
v -58 -30 0
v -59 -30 0
v -59 -29 0
v -58 -29 0
v -57 -30 0
v -58 -30 0
v -58 -29 0
v -57 -29 0
v -66 -31 0
v -67 -31 0
v -67 -30 0
v -66 -30 0
v -65 -31 0
v -66 -31 0
v -66 -30 0
v -65 -30 0
v -64 -31 0
v -65 -31 0
v -65 -30 0
v -64 -30 0
v -63 -31 0
v -64 -31 0
v -64 -30 0
v -63 -30 0
v -62 -31 0
v -63 -31 0
v -63 -30 0
v -62 -30 0
v -61 -31 0
v -62 -31 0
v -62 -30 0
v -61 -30 0
v -60 -31 0
v -61 -31 0
v -61 -30 0
v -60 -30 0
v -59 -31 0
v -60 -31 0
v -60 -30 0
v -59 -30 0
v -58 -31 0
v -59 -31 0
v -59 -30 0
v -58 -30 0
v -57 -31 0
v -58 -31 0
v -58 -30 0
v -57 -30 0
v -56 -31 0
v -57 -31 0
v -57 -30 0
v -56 -30 0
v -65 -32 0
v -66 -32 0
v -66 -31 0
v -65 -31 0
v -64 -32 0
v -65 -32 0
v -65 -31 0
v -64 -31 0
v -63 -32 0
v -64 -32 0
v -64 -31 0
v -63 -31 0
v -62 -32 0
v -63 -32 0
v -63 -31 0
v -62 -31 0
v -61 -32 0
v -62 -32 0
v -62 -31 0
v -61 -31 0
v -60 -32 0
v -61 -32 0
v -61 -31 0
v -60 -31 0
v -59 -32 0
v -60 -32 0
v -60 -31 0
v -59 -31 0
v -58 -32 0
v -59 -32 0
v -59 -31 0
v -58 -31 0
v -57 -32 0
v -58 -32 0
v -58 -31 0
v -57 -31 0
v -56 -32 0
v -57 -32 0
v -57 -31 0
v -56 -31 0
v -65 -33 0
v -66 -33 0
v -66 -32 0
v -65 -32 0
v -64 -33 0
v -65 -33 0
v -65 -32 0
v -64 -32 0
v -63 -33 0
v -64 -33 0
v -64 -32 0
v -63 -32 0
v -62 -33 0
v -63 -33 0
v -63 -32 0
v -62 -32 0
v -59 -33 0
v -60 -33 0
v -60 -32 0
v -59 -32 0
v -58 -33 0
v -59 -33 0
v -59 -32 0
v -58 -32 0
v -57 -33 0
v -58 -33 0
v -58 -32 0
v -57 -32 0
v -56 -33 0
v -57 -33 0
v -57 -32 0
v -56 -32 0
v -65 -34 0
v -66 -34 0
v -66 -33 0
v -65 -33 0
v -64 -34 0
v -65 -34 0
v -65 -33 0
v -64 -33 0
v -63 -34 0
v -64 -34 0
v -64 -33 0
v -63 -33 0
v -62 -34 0
v -63 -34 0
v -63 -33 0
v -62 -33 0
v -60 -34 0
v -61 -34 0
v -61 -33 0
v -60 -33 0
v -59 -34 0
v -60 -34 0
v -60 -33 0
v -59 -33 0
v -58 -34 0
v -59 -34 0
v -59 -33 0
v -58 -33 0
v -57 -34 0
v -58 -34 0
v -58 -33 0
v -57 -33 0
v -65 -35 0
v -66 -35 0
v -66 -34 0
v -65 -34 0
v -64 -35 0
v -65 -35 0
v -65 -34 0
v -64 -34 0
v -63 -35 0
v -64 -35 0
v -64 -34 0
v -63 -34 0
v -62 -35 0
v -63 -35 0
v -63 -34 0
v -62 -34 0
v -61 -35 0
v -62 -35 0
v -62 -34 0
v -61 -34 0
v -60 -35 0
v -61 -35 0
v -61 -34 0
v -60 -34 0
v -59 -35 0
v -60 -35 0
v -60 -34 0
v -59 -34 0
v -58 -35 0
v -59 -35 0
v -59 -34 0
v -58 -34 0
v -57 -35 0
v -58 -35 0
v -58 -34 0
v -57 -34 0
v -64 -36 0
v -65 -36 0
v -65 -35 0
v -64 -35 0
v -63 -36 0
v -64 -36 0
v -64 -35 0
v -63 -35 0
v -62 -36 0
v -63 -36 0
v -63 -35 0
v -62 -35 0
v -61 -36 0
v -62 -36 0
v -62 -35 0
v -61 -35 0
v -60 -36 0
v -61 -36 0
v -61 -35 0
v -60 -35 0
v -59 -36 0
v -60 -36 0
v -60 -35 0
v -59 -35 0
v -58 -36 0
v -59 -36 0
v -59 -35 0
v -58 -35 0
v -57 -36 0
v -58 -36 0
v -58 -35 0
v -57 -35 0
v -64 -37 0
v -65 -37 0
v -65 -36 0
v -64 -36 0
v -63 -37 0
v -64 -37 0
v -64 -36 0
v -63 -36 0
v -62 -37 0
v -63 -37 0
v -63 -36 0
v -62 -36 0
v -61 -37 0
v -62 -37 0
v -62 -36 0
v -61 -36 0
v -60 -37 0
v -61 -37 0
v -61 -36 0
v -60 -36 0
v -59 -37 0
v -60 -37 0
v -60 -36 0
v -59 -36 0
v -58 -37 0
v -59 -37 0
v -59 -36 0
v -58 -36 0
v -57 -37 0
v -58 -37 0
v -58 -36 0
v -57 -36 0
v -63 -38 0
v -64 -38 0
v -64 -37 0
v -63 -37 0
v -62 -38 0
v -63 -38 0
v -63 -37 0
v -62 -37 0
v -61 -38 0
v -62 -38 0
v -62 -37 0
v -61 -37 0
v -60 -38 0
v -61 -38 0
v -61 -37 0
v -60 -37 0
v -59 -38 0
v -60 -38 0
v -60 -37 0
v -59 -37 0
v -58 -38 0
v -59 -38 0
v -59 -37 0
v -58 -37 0
v -57 -38 0
v -58 -38 0
v -58 -37 0
v -57 -37 0
v -63 -39 0
v -64 -39 0
v -64 -38 0
v -63 -38 0
v -62 -39 0
v -63 -39 0
v -63 -38 0
v -62 -38 0
v -61 -39 0
v -62 -39 0
v -62 -38 0
v -61 -38 0
v -60 -39 0
v -61 -39 0
v -61 -38 0
v -60 -38 0
v -59 -39 0
v -60 -39 0
v -60 -38 0
v -59 -38 0
v -58 -39 0
v -59 -39 0
v -59 -38 0
v -58 -38 0
v -57 -39 0
v -58 -39 0
v -58 -38 0
v -57 -38 0
v -56 -39 0
v -57 -39 0
v -57 -38 0
v -56 -38 0
v -63 -40 0
v -64 -40 0
v -64 -39 0
v -63 -39 0
v -62 -40 0
v -63 -40 0
v -63 -39 0
v -62 -39 0
v -61 -40 0
v -62 -40 0
v -62 -39 0
v -61 -39 0
v -60 -40 0
v -61 -40 0
v -61 -39 0
v -60 -39 0
v -59 -40 0
v -60 -40 0
v -60 -39 0
v -59 -39 0
v -58 -40 0
v -59 -40 0
v -59 -39 0
v -58 -39 0
v -57 -40 0
v -58 -40 0
v -58 -39 0
v -57 -39 0
v -56 -40 0
v -57 -40 0
v -57 -39 0
v -56 -39 0
v -63 -41 0
v -64 -41 0
v -64 -40 0
v -63 -40 0
v -62 -41 0
v -63 -41 0
v -63 -40 0
v -62 -40 0
v -61 -41 0
v -62 -41 0
v -62 -40 0
v -61 -40 0
v -60 -41 0
v -61 -41 0
v -61 -40 0
v -60 -40 0
v -59 -41 0
v -60 -41 0
v -60 -40 0
v -59 -40 0
v -58 -41 0
v -59 -41 0
v -59 -40 0
v -58 -40 0
v -57 -41 0
v -58 -41 0
v -58 -40 0
v -57 -40 0
v -56 -41 0
v -57 -41 0
v -57 -40 0
v -56 -40 0
v -63 -42 0
v -64 -42 0
v -64 -41 0
v -63 -41 0
v -62 -42 0
v -63 -42 0
v -63 -41 0
v -62 -41 0
v -61 -42 0
v -62 -42 0
v -62 -41 0
v -61 -41 0
v -60 -42 0
v -61 -42 0
v -61 -41 0
v -60 -41 0
v -59 -42 0
v -60 -42 0
v -60 -41 0
v -59 -41 0
v -58 -42 0
v -59 -42 0
v -59 -41 0
v -58 -41 0
v -57 -42 0
v -58 -42 0
v -58 -41 0
v -57 -41 0
v -56 -42 0
v -57 -42 0
v -57 -41 0
v -56 -41 0
v -58 -43 0
v -59 -43 0
v -59 -42 0
v -58 -42 0
v -57 -43 0
v -58 -43 0
v -58 -42 0
v -57 -42 0
v -56 -43 0
v -57 -43 0
v -57 -42 0
v -56 -42 0

# Texture cooridinates (Count = 64)
vt 0.9132231 0.6463878
vt 0.9297521 0.6463878
vt 0.9297521 0.6768061
vt 0.9132231 0.6768061
vt 0.9307851 0.6463878
vt 0.947314 0.6463878
vt 0.947314 0.6768061
vt 0.9307851 0.6768061
vt 0.1580579 0.6787072
vt 0.1745868 0.6787072
vt 0.1745868 0.7091255
vt 0.1580579 0.7091255
vt 0.1404959 0.6787072
vt 0.1570248 0.6787072
vt 0.1570248 0.7091255
vt 0.1404959 0.7091255
vt 0.1229339 0.6787072
vt 0.1394628 0.6787072
vt 0.1394628 0.7091255
vt 0.1229339 0.7091255
vt 0.8956612 0.6140684
vt 0.9121901 0.6140684
vt 0.9121901 0.6444867
vt 0.8956612 0.6444867
vt 0.08780992 0.6463878
vt 0.1043388 0.6463878
vt 0.1043388 0.6768061
vt 0.08780992 0.6768061
vt 0.1404959 0.6463878
vt 0.1570248 0.6463878
vt 0.1570248 0.6768061
vt 0.1404959 0.6768061
vt 0.1053719 0.6463878
vt 0.1219008 0.6463878
vt 0.1219008 0.6768061
vt 0.1053719 0.6768061
vt 0.1580579 0.6463878
vt 0.1745868 0.6463878
vt 0.1745868 0.6768061
vt 0.1580579 0.6768061
vt 0.1053719 0.6787072
vt 0.1219008 0.6787072
vt 0.1219008 0.7091255
vt 0.1053719 0.7091255
vt 0.1404959 0.6140684
vt 0.1570248 0.6140684
vt 0.1570248 0.6444867
vt 0.1404959 0.6444867
vt 0.08780992 0.6787072
vt 0.1043388 0.6787072
vt 0.1043388 0.7091255
vt 0.08780992 0.7091255
vt 0.1229339 0.6463878
vt 0.1394628 0.6463878
vt 0.1394628 0.6768061
vt 0.1229339 0.6768061
vt 0.1229339 0.6140684
vt 0.1394628 0.6140684
vt 0.1394628 0.6444867
vt 0.1229339 0.6444867
vt 0.1580579 0.6140684
vt 0.1745868 0.6140684
vt 0.1745868 0.6444867
vt 0.1580579 0.6444867

# Normal
vn 0 0 -1

# Mesh description
g test_area_mesh_0002

# Faces
f 1/1/1 2/2/1 3/3/1 4/4/1
f 5/5/1 6/6/1 7/7/1 8/8/1
f 9/9/1 10/10/1 11/11/1 12/12/1
f 13/13/1 14/14/1 15/15/1 16/16/1
f 17/13/1 18/14/1 19/15/1 20/16/1
f 21/13/1 22/14/1 23/15/1 24/16/1
f 25/13/1 26/14/1 27/15/1 28/16/1
f 29/13/1 30/14/1 31/15/1 32/16/1
f 33/13/1 34/14/1 35/15/1 36/16/1
f 37/17/1 38/18/1 39/19/1 40/20/1
f 41/21/1 42/22/1 43/23/1 44/24/1
f 45/9/1 46/10/1 47/11/1 48/12/1
f 49/25/1 50/26/1 51/27/1 52/28/1
f 53/29/1 54/30/1 55/31/1 56/32/1
f 57/29/1 58/30/1 59/31/1 60/32/1
f 61/29/1 62/30/1 63/31/1 64/32/1
f 65/29/1 66/30/1 67/31/1 68/32/1
f 69/29/1 70/30/1 71/31/1 72/32/1
f 73/29/1 74/30/1 75/31/1 76/32/1
f 77/33/1 78/34/1 79/35/1 80/36/1
f 81/17/1 82/18/1 83/19/1 84/20/1
f 85/37/1 86/38/1 87/39/1 88/40/1
f 89/29/1 90/30/1 91/31/1 92/32/1
f 93/29/1 94/30/1 95/31/1 96/32/1
f 97/41/1 98/42/1 99/43/1 100/44/1
f 101/45/1 102/46/1 103/47/1 104/48/1
f 105/45/1 106/46/1 107/47/1 108/48/1
f 109/49/1 110/50/1 111/51/1 112/52/1
f 113/29/1 114/30/1 115/31/1 116/32/1
f 117/29/1 118/30/1 119/31/1 120/32/1
f 121/53/1 122/54/1 123/55/1 124/56/1
f 125/37/1 126/38/1 127/39/1 128/40/1
f 129/29/1 130/30/1 131/31/1 132/32/1
f 133/29/1 134/30/1 135/31/1 136/32/1
f 137/53/1 138/54/1 139/55/1 140/56/1
f 141/37/1 142/38/1 143/39/1 144/40/1
f 145/29/1 146/30/1 147/31/1 148/32/1
f 149/41/1 150/42/1 151/43/1 152/44/1
f 153/57/1 154/58/1 155/59/1 156/60/1
f 157/37/1 158/38/1 159/39/1 160/40/1
f 161/29/1 162/30/1 163/31/1 164/32/1
f 165/29/1 166/30/1 167/31/1 168/32/1
f 169/53/1 170/54/1 171/55/1 172/56/1
f 173/9/1 174/10/1 175/11/1 176/12/1
f 177/25/1 178/26/1 179/27/1 180/28/1
f 181/29/1 182/30/1 183/31/1 184/32/1
f 185/53/1 186/54/1 187/55/1 188/56/1
f 189/61/1 190/62/1 191/63/1 192/64/1
f 193/49/1 194/50/1 195/51/1 196/52/1
f 197/29/1 198/30/1 199/31/1 200/32/1
f 201/33/1 202/34/1 203/35/1 204/36/1
f 205/13/1 206/14/1 207/15/1 208/16/1
f 209/25/1 210/26/1 211/27/1 212/28/1
f 213/29/1 214/30/1 215/31/1 216/32/1
f 217/29/1 218/30/1 219/31/1 220/32/1
f 221/53/1 222/54/1 223/55/1 224/56/1
f 225/37/1 226/38/1 227/39/1 228/40/1
f 229/29/1 230/30/1 231/31/1 232/32/1
f 233/29/1 234/30/1 235/31/1 236/32/1
f 237/29/1 238/30/1 239/31/1 240/32/1
f 241/29/1 242/30/1 243/31/1 244/32/1
f 245/29/1 246/30/1 247/31/1 248/32/1
f 249/29/1 250/30/1 251/31/1 252/32/1
f 253/53/1 254/54/1 255/55/1 256/56/1
f 257/61/1 258/62/1 259/63/1 260/64/1
f 261/49/1 262/50/1 263/51/1 264/52/1
f 265/29/1 266/30/1 267/31/1 268/32/1
f 269/29/1 270/30/1 271/31/1 272/32/1
f 273/29/1 274/30/1 275/31/1 276/32/1
f 277/29/1 278/30/1 279/31/1 280/32/1
f 281/29/1 282/30/1 283/31/1 284/32/1
f 285/53/1 286/54/1 287/55/1 288/56/1
f 289/37/1 290/38/1 291/39/1 292/40/1
f 293/29/1 294/30/1 295/31/1 296/32/1
f 297/29/1 298/30/1 299/31/1 300/32/1
f 301/29/1 302/30/1 303/31/1 304/32/1
f 305/29/1 306/30/1 307/31/1 308/32/1
f 309/29/1 310/30/1 311/31/1 312/32/1
f 313/53/1 314/54/1 315/55/1 316/56/1
f 317/37/1 318/38/1 319/39/1 320/40/1
f 321/29/1 322/30/1 323/31/1 324/32/1
f 325/29/1 326/30/1 327/31/1 328/32/1
f 329/29/1 330/30/1 331/31/1 332/32/1
f 333/29/1 334/30/1 335/31/1 336/32/1
f 337/29/1 338/30/1 339/31/1 340/32/1
f 341/33/1 342/34/1 343/35/1 344/36/1
f 345/17/1 346/18/1 347/19/1 348/20/1
f 349/37/1 350/38/1 351/39/1 352/40/1
f 353/29/1 354/30/1 355/31/1 356/32/1
f 357/29/1 358/30/1 359/31/1 360/32/1
f 361/29/1 362/30/1 363/31/1 364/32/1
f 365/29/1 366/30/1 367/31/1 368/32/1
f 369/29/1 370/30/1 371/31/1 372/32/1
f 373/29/1 374/30/1 375/31/1 376/32/1
f 377/53/1 378/54/1 379/55/1 380/56/1
f 381/37/1 382/38/1 383/39/1 384/40/1
f 385/29/1 386/30/1 387/31/1 388/32/1
f 389/29/1 390/30/1 391/31/1 392/32/1
f 393/29/1 394/30/1 395/31/1 396/32/1
f 397/29/1 398/30/1 399/31/1 400/32/1
f 401/29/1 402/30/1 403/31/1 404/32/1
f 405/29/1 406/30/1 407/31/1 408/32/1
f 409/53/1 410/54/1 411/55/1 412/56/1
f 413/61/1 414/62/1 415/63/1 416/64/1
f 417/45/1 418/46/1 419/47/1 420/48/1
f 421/45/1 422/46/1 423/47/1 424/48/1
f 425/45/1 426/46/1 427/47/1 428/48/1
f 429/45/1 430/46/1 431/47/1 432/48/1
f 433/49/1 434/50/1 435/51/1 436/52/1
f 437/29/1 438/30/1 439/31/1 440/32/1
f 441/53/1 442/54/1 443/55/1 444/56/1
f 445/61/1 446/62/1 447/63/1 448/64/1
f 449/45/1 450/46/1 451/47/1 452/48/1
f 453/57/1 454/58/1 455/59/1 456/60/1

