# Tiled2Unity generated file. Do not modify by hand.
# Wavefront file for 'test_area_mesh_0003.obj'

# Vertices (Count = 40)
v -68 -36 0
v -69 -36 0
v -69 -35 0
v -68 -35 0
v -69 -37 0
v -70 -37 0
v -70 -36 0
v -69 -36 0
v -68 -37 0
v -69 -37 0
v -69 -36 0
v -68 -36 0
v -67 -37 0
v -68 -37 0
v -68 -36 0
v -67 -36 0
v -69 -38 0
v -70 -38 0
v -70 -37 0
v -69 -37 0
v -68 -38 0
v -69 -38 0
v -69 -37 0
v -68 -37 0
v -67 -38 0
v -68 -38 0
v -68 -37 0
v -67 -37 0
v -69 -39 0
v -70 -39 0
v -70 -38 0
v -69 -38 0
v -68 -39 0
v -69 -39 0
v -69 -38 0
v -68 -38 0
v -67 -39 0
v -68 -39 0
v -68 -38 0
v -67 -38 0

# Texture cooridinates (Count = 20)
vt 0.2283058 0.1939163
vt 0.2448347 0.1939163
vt 0.2448347 0.2243346
vt 0.2283058 0.2243346
vt 0.2458678 0.2908745
vt 0.2623967 0.2908745
vt 0.2623967 0.3212928
vt 0.2458678 0.3212928
vt 0.3161157 0.2585551
vt 0.3326446 0.2585551
vt 0.3326446 0.2889734
vt 0.3161157 0.2889734
vt 0.2283058 0.2908745
vt 0.2448347 0.2908745
vt 0.2448347 0.3212928
vt 0.2283058 0.3212928
vt 0.2283058 0.2585551
vt 0.2448347 0.2585551
vt 0.2448347 0.2889734
vt 0.2283058 0.2889734

# Normal
vn 0 0 -1

# Mesh description
g test_area_mesh_0003

# Faces
f 1/1/1 2/2/1 3/3/1 4/4/1
f 5/5/1 6/6/1 7/7/1 8/8/1
f 9/9/1 10/10/1 11/11/1 12/12/1
f 13/13/1 14/14/1 15/15/1 16/16/1
f 17/9/1 18/10/1 19/11/1 20/12/1
f 21/9/1 22/10/1 23/11/1 24/12/1
f 25/17/1 26/18/1 27/19/1 28/20/1
f 29/9/1 30/10/1 31/11/1 32/12/1
f 33/9/1 34/10/1 35/11/1 36/12/1
f 37/17/1 38/18/1 39/19/1 40/20/1

