# Tiled2Unity generated file. Do not modify by hand.
# Wavefront file for 'test_area_mesh_0004.obj'

# Vertices (Count = 16)
v -68 -35 0
v -69 -35 0
v -69 -34 0
v -68 -34 0
v -69 -38 0
v -70 -38 0
v -70 -37 0
v -69 -37 0
v -67 -38 0
v -68 -38 0
v -68 -37 0
v -67 -37 0
v -68 -39 0
v -69 -39 0
v -69 -38 0
v -68 -38 0

# Texture cooridinates (Count = 12)
vt 0.8956612 0.6463878
vt 0.9121901 0.6463878
vt 0.9121901 0.6768061
vt 0.8956612 0.6768061
vt 0.7200413 0.7110266
vt 0.7365702 0.7110266
vt 0.7365702 0.7414448
vt 0.7200413 0.7414448
vt 0.6322314 0.9372624
vt 0.6487603 0.9372624
vt 0.6487603 0.9676806
vt 0.6322314 0.9676806

# Normal
vn 0 0 -1

# Mesh description
g test_area_mesh_0004

# Faces
f 1/1/1 2/2/1 3/3/1 4/4/1
f 5/5/1 6/6/1 7/7/1 8/8/1
f 9/5/1 10/6/1 11/7/1 12/8/1
f 13/9/1 14/10/1 15/11/1 16/12/1

