# Tiled2Unity generated file. Do not modify by hand.
# Wavefront file for 'test_area_mesh_0005.obj'

# Vertices (Count = 104)
v -58 -27 0
v -59 -27 0
v -59 -26 0
v -58 -26 0
v -58 -28 0
v -59 -28 0
v -59 -27 0
v -58 -27 0
v -50 -28 0
v -51 -28 0
v -51 -27 0
v -50 -27 0
v -50 -29 0
v -51 -29 0
v -51 -28 0
v -50 -28 0
v -63 -30 0
v -64 -30 0
v -64 -29 0
v -63 -29 0
v -67 -32 0
v -68 -32 0
v -68 -31 0
v -67 -31 0
v -61 -32 0
v -62 -32 0
v -62 -31 0
v -61 -31 0
v -60 -32 0
v -61 -32 0
v -61 -31 0
v -60 -31 0
v -67 -33 0
v -68 -33 0
v -68 -32 0
v -67 -32 0
v -61 -33 0
v -62 -33 0
v -62 -32 0
v -61 -32 0
v -60 -33 0
v -61 -33 0
v -61 -32 0
v -60 -32 0
v -55 -33 0
v -56 -33 0
v -56 -32 0
v -55 -32 0
v -55 -34 0
v -56 -34 0
v -56 -33 0
v -55 -33 0
v -62 -36 0
v -63 -36 0
v -63 -35 0
v -62 -35 0
v -60 -37 0
v -61 -37 0
v -61 -36 0
v -60 -36 0
v -58 -38 0
v -59 -38 0
v -59 -37 0
v -58 -37 0
v -51 -38 0
v -52 -38 0
v -52 -37 0
v -51 -37 0
v -50 -38 0
v -51 -38 0
v -51 -37 0
v -50 -37 0
v -62 -39 0
v -63 -39 0
v -63 -38 0
v -62 -38 0
v -58 -39 0
v -59 -39 0
v -59 -38 0
v -58 -38 0
v -51 -39 0
v -52 -39 0
v -52 -38 0
v -51 -38 0
v -50 -39 0
v -51 -39 0
v -51 -38 0
v -50 -38 0
v -62 -40 0
v -63 -40 0
v -63 -39 0
v -62 -39 0
v -54 -40 0
v -55 -40 0
v -55 -39 0
v -54 -39 0
v -54 -41 0
v -55 -41 0
v -55 -40 0
v -54 -40 0
v -51 -41 0
v -52 -41 0
v -52 -40 0
v -51 -40 0

# Texture cooridinates (Count = 12)
vt 0.2809917 0.6463878
vt 0.2975207 0.6463878
vt 0.2975207 0.6768061
vt 0.2809917 0.6768061
vt 0.2809917 0.6140684
vt 0.2975207 0.6140684
vt 0.2975207 0.6444867
vt 0.2809917 0.6444867
vt 0.2283058 0.6787072
vt 0.2448347 0.6787072
vt 0.2448347 0.7091255
vt 0.2283058 0.7091255

# Normal
vn 0 0 -1

# Mesh description
g test_area_mesh_0005

# Faces
f 1/1/1 2/2/1 3/3/1 4/4/1
f 5/5/1 6/6/1 7/7/1 8/8/1
f 9/1/1 10/2/1 11/3/1 12/4/1
f 13/5/1 14/6/1 15/7/1 16/8/1
f 17/9/1 18/10/1 19/11/1 20/12/1
f 21/1/1 22/2/1 23/3/1 24/4/1
f 25/1/1 26/2/1 27/3/1 28/4/1
f 29/1/1 30/2/1 31/3/1 32/4/1
f 33/5/1 34/6/1 35/7/1 36/8/1
f 37/5/1 38/6/1 39/7/1 40/8/1
f 41/5/1 42/6/1 43/7/1 44/8/1
f 45/9/1 46/10/1 47/11/1 48/12/1
f 49/9/1 50/10/1 51/11/1 52/12/1
f 53/9/1 54/10/1 55/11/1 56/12/1
f 57/9/1 58/10/1 59/11/1 60/12/1
f 61/1/1 62/2/1 63/3/1 64/4/1
f 65/1/1 66/2/1 67/3/1 68/4/1
f 69/1/1 70/2/1 71/3/1 72/4/1
f 73/1/1 74/2/1 75/3/1 76/4/1
f 77/5/1 78/6/1 79/7/1 80/8/1
f 81/5/1 82/6/1 83/7/1 84/8/1
f 85/5/1 86/6/1 87/7/1 88/8/1
f 89/5/1 90/6/1 91/7/1 92/8/1
f 93/1/1 94/2/1 95/3/1 96/4/1
f 97/5/1 98/6/1 99/7/1 100/8/1
f 101/9/1 102/10/1 103/11/1 104/12/1

